<svg width="30" height="30" viewBox="0 0 30 30" fill="none" xmlns="http://www.w3.org/2000/svg">
<circle cx="15" cy="15" r="14.5" stroke="#C5C5C5"/>
<path fill-rule="evenodd" clip-rule="evenodd" d="M15 28C22.1797 28 28 22.1797 28 15C28 7.8203 22.1797 2 15 2C7.8203 2 2 7.8203 2 15C2 22.1797 7.8203 28 15 28ZM15.0001 5L15.0002 5.0551V5.06913C15.0222 7.61825 16.252 10.3467 17.3421 12.7652C17.9971 14.2185 18.6017 15.5598 18.8634 16.6829H15.4446V11.8293H15.4445V11.8049H13.0883C14.058 9.61604 15.0001 7.23706 15.0001 5ZM17.2223 17.6829H18.9996C18.9999 17.6993 19 17.7155 19 17.7317C19 19.6676 18.4028 21.3596 17.2223 22.2753L17.2223 20.6098V19.6098L17.2223 17.6829ZM16.2223 17.6829V19.6098H11.2087C11.0697 19.0264 11 18.3933 11 17.7317C11 16.4523 11.7734 14.7277 12.64 12.8049H14.4446V17.6829H14.5555H15.4446H16.2223ZM16.2223 20.6098H11.5369C12.1583 22.049 13.3167 23 15.0001 23H15.0002C15.4442 23 15.8516 22.9338 16.2223 22.81V20.6098Z" fill="#C5C5C5"/>
</svg>
