<svg width="30" height="30" viewBox="0 0 30 30" fill="none" xmlns="http://www.w3.org/2000/svg">
<circle cx="15" cy="15" r="14.5" stroke="#FE5F55"/>
<circle cx="15" cy="15" r="13" fill="#FE5F55"/>
<path fill-rule="evenodd" clip-rule="evenodd" d="M15.0002 5.0551L15.0001 5C15.0001 7.23706 14.058 9.61604 13.0883 11.8049H15.4445V11.8293H15.4446L15.4446 16.6829H18.8634C18.6017 15.5598 17.9971 14.2185 17.3421 12.7652C16.252 10.3467 15.0222 7.61825 15.0002 5.06913V5.0551ZM18.9996 17.6829H17.2223L17.2223 19.6098V20.6098L17.2223 22.2753C18.4028 21.3596 19 19.6676 19 17.7317C19 17.7155 18.9999 17.6993 18.9996 17.6829ZM16.2223 19.6098V17.6829H15.4446H14.5555H14.4446L14.4446 12.8049H12.64C11.7734 14.7277 11 16.4523 11 17.7317C11 18.3933 11.0697 19.0264 11.2087 19.6098H16.2223ZM11.5369 20.6098H16.2223V22.81C15.8516 22.9338 15.4442 23 15.0002 23H15.0001C13.3167 23 12.1583 22.049 11.5369 20.6098Z" fill="#393D3F"/>
</svg>
