<svg width="30" height="30" viewBox="0 0 30 30" fill="none" xmlns="http://www.w3.org/2000/svg">
<circle cx="15" cy="15" r="14.5" stroke="#C5C5C5"/>
<path fill-rule="evenodd" clip-rule="evenodd" d="M15 28C22.1797 28 28 22.1797 28 15C28 7.8203 22.1797 2 15 2C7.8203 2 2 7.8203 2 15C2 22.1797 7.8203 28 15 28ZM23.1962 12.8038L21.9805 14.9094L21.364 14.2929L15.7071 8.63606L15.3377 8.26668L23.1962 12.8038ZM14.9095 8.01945L12.8039 6.80377L8.26692 14.662L8.63604 14.2929L14.2929 8.63606L14.9095 8.01945ZM8.0195 15.0906L6.80389 17.1961L14.6617 21.7328L14.2929 21.364L8.63604 15.7071L8.0195 15.0906ZM15.0907 21.9804L17.1962 23.1961L21.733 15.3381L21.364 15.7071L15.7071 21.364L15.0907 21.9804ZM13.3039 5.93774L12.4379 5.43774L11.9379 6.30377L5.93787 16.6961L5.43787 17.5621L6.30389 18.0621L16.6962 24.0621L17.5622 24.5621L18.0622 23.6961L24.0622 13.3038L24.5622 12.4377L23.6962 11.9377L13.3039 5.93774Z" fill="#C5C5C5"/>
<circle cx="15" cy="15" r="1" fill="#C5C5C5"/>
<rect x="15" y="10.0504" width="7" height="7" transform="rotate(45 15 10.0504)" stroke="#C5C5C5"/>
</svg>
