<svg width="30" height="30" viewBox="0 0 30 30" fill="none" xmlns="http://www.w3.org/2000/svg">
<circle cx="15" cy="15" r="14.5" stroke="#C5C5C5"/>
<path fill-rule="evenodd" clip-rule="evenodd" d="M15 23C19.0796 23 22.446 19.9463 22.9381 16H21.9291C21.4439 19.3923 18.5265 22 15 22C11.4735 22 8.55612 19.3923 8.07089 16H7.06189C7.55399 19.9463 10.9204 23 15 23ZM7.06189 14C7.55399 10.0537 10.9204 7 15 7C19.0796 7 22.446 10.0537 22.9381 14H21.9291C21.4439 10.6077 18.5265 8 15 8C11.4735 8 8.55612 10.6077 8.07089 14L7.06189 14Z" fill="#C5C5C5"/>
<path fill-rule="evenodd" clip-rule="evenodd" d="M28 15C28 22.1797 22.1797 28 15 28C7.8203 28 2 22.1797 2 15C2 7.8203 7.8203 2 15 2C22.1797 2 28 7.8203 28 15ZM9.0002 16H6C5.44772 16 5 15.5523 5 15C5 14.4477 5.44772 14 6 14H9.0001L14 12.3334V13.2676C13.4023 13.6134 13.0001 14.2597 13.0001 15C13.0001 15.7402 13.4023 16.3865 14 16.7323V17.6666L9.0002 16ZM16 16.7325V17.6667L21 16H24C24.5523 16 25 15.5523 25 15C25 14.4477 24.5523 14 24 14H21.0002L16 12.3333V13.2675C16.5979 13.6133 17.0001 14.2596 17.0001 15C17.0001 15.7403 16.5979 16.3867 16 16.7325ZM15 16C15.5523 16 16 15.5523 16 15C16 14.4477 15.5523 14 15 14C14.4477 14 14 14.4477 14 15C14 15.5523 14.4477 16 15 16Z" fill="#C5C5C5"/>
</svg>
