<svg width="30" height="30" viewBox="0 0 30 30" fill="none" xmlns="http://www.w3.org/2000/svg">
<path fill-rule="evenodd" clip-rule="evenodd" d="M15 28C22.1797 28 28 22.1797 28 15C28 7.8203 22.1797 2 15 2C7.8203 2 2 7.8203 2 15C2 22.1797 7.8203 28 15 28ZM6 16H9.0002L14 17.6666V16.7323C13.4023 16.3865 13.0001 15.7402 13.0001 15C13.0001 14.2597 13.4023 13.6134 14 13.2676V12.3334L9.0001 14H6C5.44772 14 5 14.4477 5 15C5 15.5523 5.44772 16 6 16ZM16 17.6667V16.7325C16.5979 16.3867 17.0001 15.7403 17.0001 15C17.0001 14.2596 16.5979 13.6133 16 13.2675V12.3333L21.0002 14H24C24.5523 14 25 14.4477 25 15C25 15.5523 24.5523 16 24 16H21L16 17.6667Z" fill="#3AAFB9"/>
<circle cx="15" cy="15" r="1" fill="#393D3F"/>
<circle cx="15" cy="15" r="14.5" stroke="#3AAFB9"/>
<path fill-rule="evenodd" clip-rule="evenodd" d="M15 23C19.0796 23 22.446 19.9463 22.9381 16H21.9291C21.4439 19.3923 18.5265 22 15 22C11.4735 22 8.55612 19.3923 8.07089 16H7.06189C7.55399 19.9463 10.9204 23 15 23ZM7.06189 14C7.55399 10.0537 10.9204 7 15 7C19.0796 7 22.446 10.0537 22.9381 14H21.9291C21.4439 10.6077 18.5265 8 15 8C11.4735 8 8.55612 10.6077 8.07089 14L7.06189 14Z" fill="#393D3F"/>
</svg>
