<svg width="40" height="40" viewBox="0 0 40 40" fill="none" xmlns="http://www.w3.org/2000/svg">
<path d="M20 40C14.6957 40 9.60859 37.8929 5.85786 34.1421C2.10713 30.3914 -1.10609e-06 25.3043 -8.74228e-07 20C-6.42368e-07 14.6957 2.10714 9.60859 5.85786 5.85786C9.60859 2.10714 14.6957 -3.05156e-07 20 -8.74228e-07L20 9C17.0826 9 14.2847 10.1589 12.2218 12.2218C10.1589 14.2847 9 17.0826 9 20C9 22.9174 10.1589 25.7153 12.2218 27.7782C14.2847 29.8411 17.0826 31 20 31L20 40Z" fill="#FE5F55"/>
<circle cx="2.5" cy="37.5" r="2.5" fill="#FE5F55"/>
<path fill-rule="evenodd" clip-rule="evenodd" d="M2.6087 5.21739C4.04944 5.21739 5.21739 4.04944 5.21739 2.6087C5.21739 1.16795 4.04944 0 2.6087 0C1.16795 0 0 1.16795 0 2.6087C0 4.04944 1.16795 5.21739 2.6087 5.21739ZM2.6087 4.34783C3.56919 4.34783 4.34783 3.56919 4.34783 2.6087C4.34783 1.6482 3.56919 0.869565 2.6087 0.869565C1.6482 0.869565 0.869565 1.6482 0.869565 2.6087C0.869565 3.56919 1.6482 4.34783 2.6087 4.34783Z" fill="#FE5F55"/>
<rect x="26" width="14" height="2" fill="#FE5F55"/>
</svg>
