<svg width="28" height="30" viewBox="0 0 28 30" fill="none" xmlns="http://www.w3.org/2000/svg">
<circle cx="14" cy="14" r="13.5" stroke="#3AAFB9"/>
<path fill-rule="evenodd" clip-rule="evenodd" d="M14 26C20.6274 26 26 20.6274 26 14C26 7.37258 20.6274 2 14 2C7.37258 2 2 7.37258 2 14C2 20.6274 7.37258 26 14 26ZM8 9C8 8.44772 8.44772 8 9 8H19C19.5523 8 20 8.44772 20 9V16C20 19.3137 17.3137 22 14 22C10.6863 22 8 19.3137 8 16V9Z" fill="#3AAFB9"/>
<path fill-rule="evenodd" clip-rule="evenodd" d="M14 9H10C9.44772 9 9 9.44772 9 10V16C9 18.7614 11.2386 21 14 21V9Z" fill="#3AAFB9"/>
<path fill-rule="evenodd" clip-rule="evenodd" d="M19.9237 20.7931C21.0708 17.4497 21.0584 11.7129 21.0501 7.8884C21.0494 7.57899 21.0488 7.2821 21.0488 7C21.0488 10.2824 22.2682 13.804 23.348 16.9222L23.348 16.9222C24.2059 19.3996 24.9756 21.6223 24.9756 23.2683C24.9756 23.4622 24.9705 23.6503 24.9602 23.8328L24.9756 23.8293C24.9756 27.5471 24.4146 29.7195 20.4878 30C17.9634 30 16 28.3171 16 23.8293C16.125 21.9544 16.6956 21.1378 17.2898 20.2874C18.0291 19.2294 18.8049 18.1191 18.8049 14.8537C18.8049 17.2063 19.2076 19.2457 19.9237 20.7931Z" fill="#393D3F"/>
<path fill-rule="evenodd" clip-rule="evenodd" d="M23.6228 24.4417C23.6304 24.3068 23.6342 24.1677 23.6342 24.0244C23.6342 22.8078 23.3138 21.9489 22.9568 20.9917C22.5074 19.7869 21.9999 18.4262 21.9999 16C21.9999 18.5923 21.6238 21.4571 20.5317 23.0443C19.84 22.3275 19.2765 21.5066 18.9199 20.9871C18.6512 20.5957 18.5 20.3754 18.5 20.4999C18.5 20.6543 18.3568 20.8566 18.1589 21.136C17.7162 21.7611 17 22.7725 17 24.5C17 27.5 18.4512 29.0001 20.3171 29.0001C23.2195 28.7928 23.6342 27.1871 23.6342 24.4391L23.6228 24.4417Z" fill="#F7FBFF"/>
</svg>
