<svg width="30" height="30" viewBox="0 0 30 30" fill="none" xmlns="http://www.w3.org/2000/svg">
<circle cx="15" cy="15" r="14.5" stroke="#3AAFB9"/>
<path fill-rule="evenodd" clip-rule="evenodd" d="M28 15C28 22.1797 22.1797 28 15 28C7.8203 28 2 22.1797 2 15C2 7.8203 7.8203 2 15 2C22.1797 2 28 7.8203 28 15ZM22.9548 18.4877C22.9843 18.3822 23.0001 18.2709 23.0001 18.1559V15.3867H21.7693V19.0504C21.4829 19.7641 20.9266 20.4594 20.0812 21.0546C19.8437 21.2218 19.5891 21.3767 19.3197 21.5182L19.3108 17.9093L18.0801 17.917L18.0902 22.0371C17.3241 22.2908 16.4868 22.4518 15.6154 22.5036V16.0125H14.3846V22.5036C13.5183 22.4521 12.6856 22.2926 11.923 22.0415V17.8899H10.6923V21.2704C10.6923 21.3653 10.7055 21.4572 10.7302 21.5442C10.4423 21.3957 10.1709 21.2321 9.9188 21.0546C9.07346 20.4595 8.51714 19.7641 8.23077 19.0505V15.3867H7V17.8898V18.1559C7 18.2707 7.01572 18.3819 7.04511 18.4873C7.23809 19.7611 8.04398 20.9577 9.34315 21.8723C10.8434 22.9285 12.8782 23.5219 15 23.5219C17.1218 23.5219 19.1566 22.9285 20.6569 21.8723C21.9559 20.9578 22.7617 19.7614 22.9548 18.4877Z" fill="#3AAFB9"/>
<rect x="10.6923" y="12.8835" width="1.23077" height="3.75469" fill="#393D3F"/>
<rect x="14.3846" y="11.0061" width="1.23077" height="3.75469" fill="#393D3F"/>
<path d="M14.3846 6.61538C14.3846 6.27552 14.6601 6 15 6C15.3399 6 15.6154 6.27552 15.6154 6.61538V9.75469H14.3846V6.61538Z" fill="#393D3F"/>
<path d="M10.6923 7.62573C10.6923 7.07345 11.14 6.62573 11.6923 6.62573H11.9231V11.632H10.6923V7.62573Z" fill="#393D3F"/>
<path d="M18.0769 6.62573H18.3077C18.86 6.62573 19.3077 7.07345 19.3077 7.62573V11.632H18.0769V6.62573Z" fill="#393D3F"/>
<rect x="18.0769" y="12.8835" width="1.23077" height="3.75469" fill="#393D3F"/>
<path d="M21.7692 10.3804H22C22.5523 10.3804 23 10.8281 23 11.3804V14.1351H21.7692V10.3804Z" fill="#393D3F"/>
<path d="M7 11.3804C7 10.8281 7.44771 10.3804 8 10.3804H8.23077V14.1351H7V11.3804Z" fill="#393D3F"/>
</svg>
