<svg width="30" height="30" viewBox="0 0 30 30" fill="none" xmlns="http://www.w3.org/2000/svg">
<circle cx="15" cy="15" r="14.5" stroke="#C5C5C5"/>
<path fill-rule="evenodd" clip-rule="evenodd" d="M28 15C28 22.1797 22.1797 28 15 28C7.8203 28 2 22.1797 2 15C2 7.8203 7.8203 2 15 2C22.1797 2 28 7.8203 28 15ZM22.9548 18.4877C22.9843 18.3822 23.0001 18.2709 23.0001 18.1559V15.3867H21.7693V19.0504C21.4829 19.7641 20.9266 20.4594 20.0812 21.0546C19.8437 21.2218 19.5891 21.3767 19.3197 21.5182L19.3108 17.9093L18.0801 17.917L18.0902 22.0371C17.3241 22.2908 16.4868 22.4518 15.6154 22.5036V16.0125H14.3846V22.5036C13.5183 22.4521 12.6856 22.2926 11.923 22.0415V17.8899H10.6923V21.2704C10.6923 21.3653 10.7055 21.4572 10.7302 21.5442C10.4423 21.3957 10.1709 21.2321 9.9188 21.0546C9.07346 20.4595 8.51714 19.7641 8.23077 19.0505V15.3867H7V17.8898V18.1559C7 18.2707 7.01572 18.3819 7.04511 18.4873C7.23809 19.7611 8.04398 20.9577 9.34315 21.8723C10.8434 22.9285 12.8782 23.5219 15 23.5219C17.1218 23.5219 19.1566 22.9285 20.6569 21.8723C21.9559 20.9578 22.7617 19.7614 22.9548 18.4877ZM10.6923 12.8837H11.9231V16.6384H10.6923V12.8837ZM15.6154 14.7608V11.0062H14.3846V14.7608H15.6154ZM14.3846 6.61538C14.3846 6.27552 14.6601 6 15 6C15.3399 6 15.6154 6.27552 15.6154 6.61539V9.75469H14.3846V6.61538ZM11.6923 6.62569C11.14 6.62569 10.6923 7.0734 10.6923 7.62568V11.6319H11.9231V6.62569H11.6923ZM18.0769 6.62569H18.3077C18.86 6.62569 19.3077 7.0734 19.3077 7.62569V11.6319H18.0769V6.62569ZM19.3077 12.8837H18.0769V16.6384H19.3077V12.8837ZM21.7692 10.3805H22C22.5523 10.3805 23 10.8282 23 11.3805V14.1352H21.7692V10.3805ZM8 10.3805C7.44771 10.3805 7 10.8282 7 11.3805V14.1352H8.23077V10.3805H8Z" fill="#C5C5C5"/>
</svg>
