<svg width="163" height="51" viewBox="0 0 163 51" fill="none" xmlns="http://www.w3.org/2000/svg">
<path d="M23 46C19.9796 46 16.9888 45.4051 14.1983 44.2492C11.4078 43.0934 8.87229 41.3992 6.73654 39.2635C4.6008 37.1277 2.90663 34.5922 1.75077 31.8017C0.594916 29.0112 2.67731e-06 26.0204 2.80934e-06 23C2.94136e-06 19.9796 0.594917 16.9888 1.75077 14.1983C2.90663 11.4078 4.6008 8.87229 6.73655 6.73654C8.8723 4.60079 11.4078 2.90663 14.1983 1.75077C16.9888 0.594911 19.9796 -1.40144e-06 23 -1.00536e-06L23 10.35C21.3388 10.35 19.6938 10.6772 18.1591 11.3129C16.6243 11.9486 15.2298 12.8804 14.0551 14.0551C12.8804 15.2298 11.9486 16.6243 11.3129 18.1591C10.6772 19.6938 10.35 21.3388 10.35 23C10.35 24.6612 10.6772 26.3062 11.3129 27.8409C11.9486 29.3757 12.8804 30.7702 14.0551 31.9449C15.2298 33.1196 16.6243 34.0514 18.1591 34.6871C19.6938 35.3228 21.3388 35.65 23 35.65L23 46Z" fill="#FE5F55"/>
<path d="M39.402 27.312C36.854 27.312 34.787 26.974 33.201 26.298C31.615 25.596 30.419 24.634 29.613 23.412C28.833 22.19 28.378 20.812 28.248 19.278H31.29C31.368 20.526 31.784 21.54 32.538 22.32C33.292 23.074 34.28 23.633 35.502 23.997C36.75 24.361 38.115 24.543 39.597 24.543C41.781 24.543 43.51 24.166 44.784 23.412C46.058 22.632 46.695 21.488 46.695 19.98C46.695 19.07 46.37 18.342 45.72 17.796C45.096 17.224 44.251 16.756 43.185 16.392C42.145 16.028 41.001 15.703 39.753 15.417C38.505 15.105 37.244 14.78 35.97 14.442C34.722 14.104 33.565 13.675 32.499 13.155C31.459 12.635 30.614 11.972 29.964 11.166C29.34 10.334 29.028 9.281 29.028 8.007C29.028 5.901 29.834 4.185 31.446 2.859C33.084 1.533 35.515 0.869999 38.739 0.869999C41.027 0.869999 42.912 1.221 44.394 1.923C45.876 2.599 46.981 3.496 47.709 4.614C48.463 5.732 48.879 6.941 48.957 8.241H45.954C45.798 6.941 45.148 5.849 44.004 4.965C42.86 4.055 41.105 3.6 38.739 3.6C37.283 3.6 36.1 3.743 35.19 4.029C34.28 4.315 33.578 4.692 33.084 5.16C32.616 5.602 32.291 6.07 32.109 6.564C31.953 7.058 31.875 7.526 31.875 7.968C31.875 8.826 32.187 9.528 32.811 10.074C33.461 10.594 34.306 11.036 35.346 11.4C36.412 11.738 37.582 12.05 38.856 12.336C40.13 12.622 41.391 12.947 42.639 13.311C43.913 13.649 45.07 14.091 46.11 14.637C47.176 15.157 48.021 15.833 48.645 16.665C49.295 17.497 49.62 18.563 49.62 19.863C49.62 22.255 48.71 24.101 46.89 25.401C45.07 26.675 42.574 27.312 39.402 27.312ZM65.8531 27V1.182H68.7781V27H65.8531ZM94.218 27L83.766 1.182H86.964L95.895 23.685L104.826 1.182H108.024L97.572 27H94.218ZM118.279 27L129.238 1.182H132.904L143.863 27H140.626L137.467 19.512H124.675L121.516 27H118.279ZM125.806 16.821H136.336L131.071 4.224L125.806 16.821Z" fill="#F7FBFF"/>
<path d="M29.3665 46V36.5455H29.9435V45.4645H34.56V46H29.3665ZM38.861 46H38.2516L41.6632 36.5455H42.3279L45.7395 46H45.1301L42.0186 37.2887H41.9725L38.861 46ZM39.7242 42.4407H44.2669V42.9762H39.7242V42.4407ZM49.453 46V36.5455H52.523C53.0954 36.5455 53.5786 36.647 53.9725 36.8501C54.3665 37.0533 54.665 37.3379 54.8681 37.7042C55.0743 38.0704 55.1774 38.4967 55.1774 38.983C55.1774 39.3646 55.1159 39.7031 54.9928 39.9986C54.8697 40.294 54.6973 40.5387 54.4757 40.7326C54.2572 40.9234 54.0002 41.0558 53.7048 41.1296V41.185C54.031 41.2096 54.3342 41.3235 54.6142 41.5266C54.8943 41.7267 55.119 41.9991 55.2882 42.3438C55.4606 42.6884 55.5468 43.0901 55.5468 43.5487C55.5468 44.0318 55.4421 44.4581 55.2328 44.8274C55.0266 45.1937 54.7173 45.4814 54.3049 45.6907C53.8925 45.8969 53.3816 46 52.7722 46H49.453ZM50.0301 45.4645H52.7722C53.4832 45.4645 54.0295 45.286 54.4111 44.929C54.7958 44.572 54.9882 44.1119 54.9882 43.5487C54.9882 43.1516 54.8943 42.7962 54.7066 42.4822C54.5219 42.1683 54.2649 41.9206 53.9356 41.739C53.6063 41.5543 53.2247 41.462 52.7907 41.462H50.0301V45.4645ZM50.0301 40.9357H52.7215C53.1246 40.9357 53.4663 40.848 53.7463 40.6726C54.0295 40.4972 54.2449 40.2617 54.3926 39.9663C54.5434 39.6708 54.6188 39.343 54.6188 38.983C54.6188 38.3982 54.4373 37.935 54.0741 37.5934C53.7109 37.2518 53.1939 37.081 52.523 37.081H50.0301V40.9357ZM67.2895 41.2727C67.2895 42.2483 67.1202 43.1009 66.7816 43.8303C66.4431 44.5566 65.9722 45.1213 65.369 45.5245C64.7689 45.9277 64.0764 46.1293 63.2916 46.1293C62.5037 46.1293 61.8082 45.9277 61.2049 45.5245C60.6048 45.1183 60.1355 44.552 59.7969 43.8256C59.4584 43.0962 59.2891 42.2453 59.2891 41.2727C59.2891 40.2971 59.4584 39.4461 59.7969 38.7198C60.1385 37.9935 60.6094 37.4287 61.2096 37.0256C61.8097 36.6193 62.5037 36.4162 63.2916 36.4162C64.0764 36.4162 64.7689 36.6178 65.369 37.021C65.9722 37.4241 66.4431 37.9904 66.7816 38.7198C67.1202 39.4461 67.2895 40.2971 67.2895 41.2727ZM66.7262 41.2727C66.7262 40.3956 66.5785 39.6354 66.2831 38.9922C65.9907 38.349 65.586 37.8519 65.0689 37.5011C64.5519 37.1471 63.9594 36.9702 63.2916 36.9702C62.6237 36.9702 62.0313 37.1456 61.5142 37.4964C60.9972 37.8442 60.5909 38.3413 60.2955 38.9876C60.0031 39.6308 59.8569 40.3925 59.8569 41.2727C59.8569 42.1437 60.0016 42.9023 60.2909 43.5487C60.5833 44.1919 60.988 44.6905 61.505 45.0444C62.0221 45.3983 62.6176 45.5753 63.2916 45.5753C63.9594 45.5753 64.5519 45.3999 65.0689 45.049C65.586 44.6951 65.9907 44.1965 66.2831 43.5533C66.5785 42.91 66.7262 42.1499 66.7262 41.2727ZM71.4946 46V36.5455H74.4076C75.0047 36.5455 75.5186 36.6624 75.9495 36.8963C76.3804 37.1302 76.7112 37.4549 76.942 37.8704C77.1729 38.2828 77.2883 38.7629 77.2883 39.3107C77.2883 39.8524 77.1729 40.3294 76.942 40.7418C76.7112 41.1512 76.3804 41.4712 75.9495 41.7021C75.5217 41.9329 75.0093 42.0483 74.4122 42.0483H71.8039V41.5082H74.3984C74.8846 41.5082 75.3001 41.4174 75.6448 41.2358C75.9895 41.0542 76.2542 40.8003 76.4388 40.4741C76.6235 40.1448 76.7158 39.757 76.7158 39.3107C76.7158 38.8614 76.6235 38.4705 76.4388 38.1381C76.2542 37.8027 75.988 37.5426 75.6402 37.358C75.2955 37.1733 74.88 37.081 74.3937 37.081H72.0717V46H71.4946ZM75.3771 41.7159L77.7038 46H77.039L74.7261 41.7159H75.3771ZM81.1795 46H80.5701L83.9817 36.5455H84.6465L88.0581 46H87.4487L84.3372 37.2887H84.291L81.1795 46ZM82.0428 42.4407H86.5854V42.9762H82.0428V42.4407ZM90.0392 37.081V36.5455H96.6639V37.081H93.6401V46H93.063V37.081H90.0392ZM107.843 41.2727C107.843 42.2483 107.674 43.1009 107.336 43.8303C106.997 44.5566 106.526 45.1213 105.923 45.5245C105.323 45.9277 104.63 46.1293 103.845 46.1293C103.058 46.1293 102.362 45.9277 101.759 45.5245C101.159 45.1183 100.689 44.552 100.351 43.8256C100.012 43.0962 99.843 42.2453 99.843 41.2727C99.843 40.2971 100.012 39.4461 100.351 38.7198C100.692 37.9935 101.163 37.4287 101.763 37.0256C102.364 36.6193 103.058 36.4162 103.845 36.4162C104.63 36.4162 105.323 36.6178 105.923 37.021C106.526 37.4241 106.997 37.9904 107.336 38.7198C107.674 39.4461 107.843 40.2971 107.843 41.2727ZM107.28 41.2727C107.28 40.3956 107.132 39.6354 106.837 38.9922C106.545 38.349 106.14 37.8519 105.623 37.5011C105.106 37.1471 104.513 36.9702 103.845 36.9702C103.178 36.9702 102.585 37.1456 102.068 37.4964C101.551 37.8442 101.145 38.3413 100.849 38.9876C100.557 39.6308 100.411 40.3925 100.411 41.2727C100.411 42.1437 100.555 42.9023 100.845 43.5487C101.137 44.1919 101.542 44.6905 102.059 45.0444C102.576 45.3983 103.171 45.5753 103.845 45.5753C104.513 45.5753 105.106 45.3999 105.623 45.049C106.14 44.6951 106.545 44.1965 106.837 43.5533C107.132 42.91 107.28 42.1499 107.28 41.2727ZM112.049 46V36.5455H114.962C115.559 36.5455 116.073 36.6624 116.503 36.8963C116.934 37.1302 117.265 37.4549 117.496 37.8704C117.727 38.2828 117.842 38.7629 117.842 39.3107C117.842 39.8524 117.727 40.3294 117.496 40.7418C117.265 41.1512 116.934 41.4712 116.503 41.7021C116.076 41.9329 115.563 42.0483 114.966 42.0483H112.358V41.5082H114.952C115.439 41.5082 115.854 41.4174 116.199 41.2358C116.543 41.0542 116.808 40.8003 116.993 40.4741C117.177 40.1448 117.27 39.757 117.27 39.3107C117.27 38.8614 117.177 38.4705 116.993 38.1381C116.808 37.8027 116.542 37.5426 116.194 37.358C115.849 37.1733 115.434 37.081 114.948 37.081H112.626V46H112.049ZM115.931 41.7159L118.258 46H117.593L115.28 41.7159H115.931ZM122.675 36.5455V46H122.098V36.5455H122.675ZM127.362 46V36.5455H132.624V37.081H127.939V41.0004H132.343V41.5359H127.939V45.4645H132.735V46H127.362ZM142.063 38.9091C142.014 38.3213 141.774 37.8458 141.343 37.4826C140.915 37.1194 140.362 36.9379 139.681 36.9379C139.223 36.9379 138.815 37.0225 138.458 37.1918C138.101 37.361 137.821 37.5919 137.618 37.8842C137.415 38.1766 137.313 38.5121 137.313 38.8906C137.313 39.1338 137.359 39.3538 137.452 39.5508C137.547 39.7447 137.681 39.9186 137.853 40.0724C138.026 40.2232 138.23 40.3556 138.467 40.4695C138.704 40.5833 138.966 40.6834 139.252 40.7695L140.286 41.0742C140.64 41.1819 140.966 41.3066 141.265 41.4482C141.566 41.5897 141.828 41.759 142.05 41.956C142.274 42.1499 142.448 42.3776 142.571 42.6392C142.697 42.9008 142.761 43.2024 142.761 43.544C142.761 44.0426 142.631 44.4889 142.373 44.8828C142.117 45.2768 141.753 45.5876 141.279 45.8153C140.808 46.04 140.252 46.1523 139.612 46.1523C139.003 46.1523 138.472 46.0492 138.019 45.843C137.57 45.6368 137.215 45.3506 136.953 44.9844C136.691 44.6151 136.544 44.1903 136.51 43.7102H137.101C137.132 44.1011 137.256 44.4396 137.475 44.7259C137.696 45.009 137.99 45.2275 138.356 45.3814C138.723 45.5353 139.141 45.6122 139.612 45.6122C140.12 45.6122 140.568 45.526 140.956 45.3537C141.343 45.1783 141.646 44.9351 141.865 44.6243C142.083 44.3134 142.193 43.9518 142.193 43.5394C142.193 43.207 142.114 42.9223 141.957 42.6854C141.8 42.4484 141.568 42.2437 141.26 42.0714C140.956 41.899 140.577 41.7451 140.125 41.6097L139.021 41.2773C138.283 41.0527 137.718 40.7464 137.327 40.3587C136.939 39.9709 136.745 39.4877 136.745 38.9091C136.745 38.4228 136.875 37.992 137.133 37.6165C137.392 37.2379 137.742 36.9409 138.186 36.7255C138.632 36.5101 139.135 36.4023 139.695 36.4023C140.258 36.4023 140.755 36.5116 141.186 36.7301C141.617 36.9455 141.959 37.2425 142.211 37.6211C142.464 37.9966 142.604 38.4259 142.631 38.9091H142.063Z" fill="#F7FBFF"/>
<circle cx="3" cy="43" r="3" fill="#FE5F55"/>
<path fill-rule="evenodd" clip-rule="evenodd" d="M3 6C4.65685 6 6 4.65685 6 3C6 1.34315 4.65685 0 3 0C1.34315 0 0 1.34315 0 3C0 4.65685 1.34315 6 3 6ZM3 5C4.10457 5 5 4.10457 5 3C5 1.89543 4.10457 1 3 1C1.89543 1 1 1.89543 1 3C1 4.10457 1.89543 5 3 5Z" fill="#FE5F55"/>
<rect x="149" width="14" height="2" fill="#FE5F55"/>
</svg>
