<svg width="30" height="30" viewBox="0 0 30 30" fill="none" xmlns="http://www.w3.org/2000/svg">
<circle cx="15" cy="15" r="14.5" stroke="#3AAFB9"/>
<path fill-rule="evenodd" clip-rule="evenodd" d="M15 28C22.1797 28 28 22.1797 28 15C28 7.8203 22.1797 2 15 2C7.8203 2 2 7.8203 2 15C2 22.1797 7.8203 28 15 28ZM15 16C18.3137 16 21 15.5523 21 15C21 14.5045 18.8377 14.0932 16 14.0138V14V10V7H14V10V11.0244V13.0271V14V14.0138C11.1623 14.0932 9 14.5045 9 15C9 15.5523 11.6863 16 15 16ZM14 18.9756V23H16L16 18.9756C15.6717 18.9917 15.338 19 15 19C14.662 19 14.3283 18.9917 14 18.9756ZM15 16.9257C17.4077 16.9257 19.546 16.5989 21.0477 16.0983C21.8038 15.8463 22.3436 15.5682 22.6738 15.308C22.8359 15.1802 22.9225 15.0762 22.9649 15.0071C22.9852 14.9741 22.9935 14.9521 22.9969 14.941C23 14.9309 23 14.9266 23 14.9257V14.9257V14.9256C23 14.9247 23 14.9204 22.9969 14.9104C22.9935 14.8992 22.9852 14.8772 22.9649 14.8442C22.9225 14.7751 22.8359 14.6711 22.6738 14.5433C22.3436 14.2831 21.8038 14.0051 21.0477 13.753C19.9775 13.3963 18.5839 13.1278 17 13.003V12C21.008 12.3032 24 13.4979 24 14.9257C24 16.5825 19.9706 17.9257 15 17.9257C10.0294 17.9257 6 16.5825 6 14.9257C6 13.4979 8.99202 12.3032 13 12V13.003C11.4161 13.1278 10.0225 13.3963 8.95227 13.753C8.19616 14.0051 7.65642 14.2831 7.32624 14.5433C7.16408 14.6711 7.07752 14.7751 7.03507 14.8442C7.01483 14.8772 7.00645 14.8992 7.00305 14.9104C6.99998 14.9205 7 14.9247 7 14.9256V14.9257V14.9257C7 14.9266 6.99998 14.9309 7.00305 14.941C7.00645 14.9521 7.01483 14.9741 7.03507 15.0071C7.07752 15.0762 7.16408 15.1802 7.32624 15.308C7.65642 15.5682 8.19616 15.8463 8.95227 16.0983C10.454 16.5989 12.5923 16.9257 15 16.9257Z" fill="#3AAFB9"/>
<path fill-rule="evenodd" clip-rule="evenodd" d="M13 12C8.99202 12.3032 6 13.4979 6 14.9257C6 16.5825 10.0294 17.9257 15 17.9257C19.9706 17.9257 24 16.5825 24 14.9257C24 13.4979 21.008 12.3032 17 12V13.003C18.5839 13.1278 19.9775 13.3963 21.0477 13.753C21.8038 14.0051 22.3436 14.2831 22.6738 14.5433C22.8359 14.6711 22.9225 14.7751 22.9649 14.8442C22.9852 14.8772 22.9935 14.8992 22.9969 14.9104C23 14.9204 23 14.9247 23 14.9256V14.9257V14.9257C23 14.9266 23 14.9309 22.9969 14.941C22.9935 14.9521 22.9852 14.9741 22.9649 15.0071C22.9225 15.0762 22.8359 15.1802 22.6738 15.308C22.3436 15.5682 21.8038 15.8463 21.0477 16.0983C19.546 16.5989 17.4077 16.9257 15 16.9257C12.5923 16.9257 10.454 16.5989 8.95227 16.0983C8.19616 15.8463 7.65642 15.5682 7.32624 15.308C7.16408 15.1802 7.07752 15.0762 7.03507 15.0071C7.01483 14.9741 7.00645 14.9521 7.00305 14.941C6.99998 14.9309 7 14.9266 7 14.9257L7 14.9257L7 14.9256C7 14.9247 6.99998 14.9204 7.00305 14.9104C7.00645 14.8992 7.01483 14.8772 7.03507 14.8442C7.07752 14.7751 7.16408 14.6711 7.32624 14.5433C7.65642 14.2831 8.19616 14.0051 8.95227 13.753C10.0225 13.3963 11.4161 13.1278 13 13.003V12Z" fill="#393D3F"/>
</svg>
